<svg width="398" height="137" viewBox="0 0 398 137" fill="none" xmlns="http://www.w3.org/2000/svg">
<path d="M128.504 104.913V127.496L102.037 133.639C91.5586 135.626 81.3812 136.68 71.5049 136.8C46.2119 136.319 28.1455 128.791 17.3057 114.217C6.34538 100.125 0.925456 85.311 1.0459 69.7739C1.16634 51.1655 7.76058 35.1466 20.8286 21.7173C33.7762 8.04704 52.0835 1.00114 75.7505 0.57959C85.8677 0.760254 95.2923 2.08512 104.024 4.5542C110.95 6.48128 116.34 8.4987 120.194 10.6064C123.747 12.7142 126.517 14.4907 128.504 15.936L113.148 30.5698L106.644 32.1055L111.251 24.6982C109.806 22.9518 107.969 21.085 105.741 19.0977C103.392 17.1706 100.622 15.3338 97.4302 13.5874C94.3589 11.6001 90.6553 10.0645 86.3193 8.98047C84.332 8.31803 82.1038 7.80615 79.6348 7.44482C77.0452 7.32438 74.3955 7.26416 71.6855 7.26416C56.7507 7.3846 44.616 12.383 35.2817 22.2593C25.5259 32.1356 20.5877 45.3241 20.4673 61.8247C20.5877 79.8309 26.4894 95.368 38.1724 108.436C49.6746 122.046 65.6032 129.032 85.958 129.393C91.8597 129.393 96.5871 128.821 100.14 127.677C103.753 126.834 106.855 125.87 109.444 124.786V94.9766L81.5317 96.4219L96.2559 88.4727H135.55L130.672 93.0796C129.588 93.8625 128.986 94.8561 128.866 96.0605C128.625 98.891 128.504 101.842 128.504 104.913Z" fill="url(#paint0_linear_262_2)"/>
<path d="M184.872 134H149.19C151.9 131.41 153.587 129.363 154.249 127.857C154.61 126.412 154.791 124.214 154.791 121.263V112.682C154.911 94.4346 155.092 78.0544 155.333 63.541C155.694 46.2575 156.116 28.3115 156.598 9.70312H143.138L156.598 3.37988H181.62C178.609 5.00586 176.681 6.5415 175.838 7.98682C174.875 9.61279 174.333 12.2023 174.212 15.7554L172.677 54.0562L184.872 49.6299C187.1 49.6299 189.388 49.5697 191.737 49.4492C206.551 49.6901 217.421 53.6948 224.347 61.4634C231.212 69.2319 234.645 78.3555 234.645 88.834C234.645 98.1081 232.055 106.509 226.876 114.037C221.576 121.564 213.447 127.285 202.486 131.2C195.922 133.187 190.051 134.12 184.872 134ZM172.677 54.8691L172.496 71.6709C172.376 84.498 172.315 97.2048 172.315 109.791C172.315 117.8 172.436 122.106 172.677 122.708C172.677 124.575 173.249 126.051 174.393 127.135C175.477 128.399 178.428 129.032 183.246 129.032C188.304 129.032 192.49 128.58 195.802 127.677C200.258 126.352 203.962 124.455 206.913 121.986C209.623 119.637 211.73 116.987 213.236 114.037C214.922 110.965 216.036 107.804 216.578 104.552C217.06 101.36 217.301 98.349 217.301 95.5186C217.421 89.8577 216.006 83.1431 213.055 75.3745C211.429 71.6408 209.02 68.1781 205.829 64.9863C202.757 61.915 198.692 59.446 193.634 57.5791C189.539 56.0133 185.835 55.11 182.523 54.8691C179.09 54.568 175.808 54.568 172.677 54.8691Z" fill="url(#paint1_linear_262_2)"/>
<path d="M307.633 80.8848L311.336 94.0732C314.046 103.769 316.877 112.32 319.828 119.728C321.694 124.063 323.32 127.346 324.706 129.574C326.151 131.802 327.566 133.759 328.951 135.445C326.964 135.686 325.157 135.897 323.531 136.078C319.617 135.897 315.793 134.783 312.059 132.735C309.108 130.868 306.91 128.881 305.465 126.773C303.839 124.666 302.604 122.769 301.761 121.083L292.999 129.574C291.313 130.658 288.603 131.952 284.869 133.458C281.075 135.204 276.227 136.138 270.326 136.258C262.678 136.138 256.987 134.151 253.253 130.296C249.339 126.623 247.381 122.197 247.381 117.018C247.381 111.537 249.037 106.78 252.35 102.745C255.421 98.6501 259.245 95.1873 263.822 92.3569C268.399 89.4061 273.096 86.9972 277.914 85.1304C282.43 83.3237 286.254 81.9085 289.386 80.8848L286.585 72.7549C283.755 64.3841 280.413 59.2051 276.559 57.2178C272.644 55.3509 266.682 54.6885 258.673 55.2305L272.132 49.4492C276.348 49.4492 280.413 49.5697 284.327 49.8105C288.181 50.1719 291.584 51.3462 294.535 53.3335C297.726 55.4412 300.195 58.6029 301.942 62.8184C303.628 67.0941 305.525 73.1162 307.633 80.8848ZM294.715 99.5835L292.999 93.2603C292.156 88.7437 290.741 86.5456 288.753 86.666C286.164 86.666 281.858 88.7437 275.836 92.8989C273.006 94.8862 270.597 97.3553 268.609 100.306C266.381 103.257 265.267 106.72 265.267 110.694C265.267 113.284 265.899 115.512 267.164 117.379C268.248 119.306 269.663 120.902 271.41 122.167C274.963 124.636 278.847 125.87 283.062 125.87C287.88 125.87 291.764 124.876 294.715 122.889C297.425 121.143 299.322 119.667 300.406 118.463C298.6 113.766 296.703 107.472 294.715 99.5835Z" fill="url(#paint2_linear_262_2)"/>
<path d="M376.375 128.851L369.51 134H337.533C339.64 131.049 340.935 128.64 341.417 126.773C341.778 124.907 341.959 122.257 341.959 118.824C342.079 95.639 342.26 74.7422 342.501 56.1338H328.319L340.875 50.1719H363.277C360.929 52.5205 359.754 55.2907 359.754 58.4824V64.2637C361.2 62.7581 362.976 61.1021 365.084 59.2954C367.071 57.549 369.36 55.923 371.949 54.4175C377.128 50.8644 383.361 49.0277 390.648 48.9072C392.515 48.9072 393.93 49.0277 394.894 49.2686C395.737 49.6299 396.55 49.9912 397.333 50.3525L389.745 69.2319L384.505 72.2129L386.041 63.3604C385.258 62.8786 384.445 62.4269 383.602 62.0054C382.759 61.7645 381.404 61.644 379.537 61.644C376.225 61.644 372.883 62.5173 369.51 64.2637C366.198 66.251 362.946 69.5029 359.754 74.0195L359.393 120.541C359.393 123.853 359.995 125.93 361.2 126.773C362.344 127.797 364.151 128.369 366.62 128.49L376.375 128.851Z" fill="url(#paint3_linear_262_2)"/>
<defs>
<linearGradient id="paint0_linear_262_2" x1="195" y1="0.500001" x2="195" y2="134" gradientUnits="userSpaceOnUse">
<stop stop-color="#196EEF"/>
<stop offset="1" stop-color="#1064E5"/>
</linearGradient>
<linearGradient id="paint1_linear_262_2" x1="195" y1="3" x2="195" y2="134" gradientUnits="userSpaceOnUse">
<stop stop-color="#DE5744"/>
<stop offset="1" stop-color="#D13D29"/>
</linearGradient>
<linearGradient id="paint2_linear_262_2" x1="195" y1="48.5" x2="195" y2="134" gradientUnits="userSpaceOnUse">
<stop stop-color="#FFBF1A"/>
<stop offset="1" stop-color="#FFB300"/>
</linearGradient>
<linearGradient id="paint3_linear_262_2" x1="195" y1="44.5" x2="195" y2="134" gradientUnits="userSpaceOnUse">
<stop stop-color="#0AA561"/>
<stop offset="1" stop-color="#00914B"/>
</linearGradient>
</defs>
</svg>
